<?xml version="1.0" encoding="iso-8859-1"?>
<!-- Uploaded to: SVG Repo, www.svgrepo.com, Generator: SVG Repo Mixer Tools -->
<svg height="25px" width="25px" version="1.1" id="Layer_1" xmlns="http://www.w3.org/2000/svg" xmlns:xlink="http://www.w3.org/1999/xlink" 
	 viewBox="0 0 392.788 392.788" xml:space="preserve">
<path style="fill:#FFFFFF;" d="M307.887,207.123c-1.487-4.267-5.43-7.111-9.956-7.111H154.934c-4.461,0-8.469,2.844-9.956,7.111
	l-31.612,92.315h30.19c6.012,0,10.925,4.849,10.925,10.925c0,6.012-4.848,10.925-10.925,10.925h-37.624l-3.556,10.279h18.489
	c6.012,0,10.925,4.848,10.925,10.925c0,6.012-4.848,10.925-10.925,10.925H95.007c0,0-6.271,15.515,8.727,17.455h245.527
	c6.723,0.259,12.154-7.176,9.956-13.899L307.887,207.123z"/>
<polygon style="fill:#56ACE0;" points="119.572,349.087 163.079,221.798 289.851,221.798 333.358,349.087 "/>
<path style="fill:#FFFFFF;" d="M260.243,285.475c0-18.618-15.127-33.875-33.875-33.875s-33.81,15.192-33.81,33.875
	c0,18.683,15.127,33.875,33.875,33.875S260.243,304.157,260.243,285.475z"/>
<g>
	<path style="fill:#194F82;" d="M226.433,232.917c-28.962,0-52.558,23.596-52.558,52.558c0,28.962,23.596,52.558,52.558,52.558
		s52.558-23.596,52.558-52.558S255.394,232.917,226.433,232.917z M192.623,285.475c0-18.618,15.127-33.875,33.875-33.875
		s33.875,15.127,33.875,33.875c0,18.683-15.127,33.875-33.875,33.875S192.623,304.157,192.623,285.475z"/>
	<path style="fill:#194F82;" d="M328.51,200.077c-4.461-13.059-16.743-21.85-30.578-21.85H154.934
		c-13.834,0-26.117,8.792-30.578,21.85l-19.653,57.341c-36.913-10.667-65.099-42.343-70.982-80.679
		c-2.521-16.937,2.78-33.875,13.899-46.222c5.301,9.051,14.998,14.869,26.053,14.869c1.552,0,76.218-11.507,76.218-11.507
		c16.549-2.521,27.927-18.101,25.341-34.651l-3.168-20.234c2.78-3.491,15.321-10.602,36.008-13.834
		c17.455-1.681,32.129-1.939,38.465,2.263l3.168,20.17c2.521,16.356,17.778,27.992,34.586,25.341l71.499-11.119
		c16.549-2.521,27.927-18.101,25.341-34.65l-3.103-20.105C371.564,7.883,297.285-9.507,198.764,5.168
		C117.245,19.131,35.015,51.519,40.639,99.681l1.034,6.659c-22.368,17.325-33.81,45.64-29.479,73.762
		c7.111,46.352,40.986,84.687,85.463,98.069l-24.566,71.887c-7.111,21.269,9.762,42.731,30.578,42.731h245.527
		c22.82,0,37.107-22.691,30.578-42.796L328.51,200.077z M202.126,26.889c71.305-10.925,146.424-2.392,154.376,23.661l3.103,20.105
		c0.711,4.655-2.457,9.051-7.111,9.762l-71.499,11.119c-4.655,0.711-9.051-2.521-9.762-7.111l-3.426-21.657
		c-3.685-18.295-27.216-22.949-63.16-19.071c-29.285,4.59-57.406,17.842-54.368,37.301l3.297,21.527
		c0.711,4.655-2.457,9.051-7.111,9.762l-71.499,11.184c-4.655,0.711-9.051-2.521-9.762-7.111l-3.103-20.105
		C63.912,66.323,135.669,36.715,202.126,26.889z M349.196,370.937H103.734c-15.063-2.069-8.727-17.455-8.727-17.455h25.859
		c6.012,0,10.925-4.849,10.925-10.925c0-6.012-4.848-10.925-10.925-10.925h-18.489l3.556-10.279h37.624
		c6.012,0,10.925-4.848,10.925-10.925c0-6.012-4.848-10.925-10.925-10.925h-30.19l31.612-92.315c1.487-4.267,5.43-7.111,9.956-7.111
		h142.933c4.461,0,8.469,2.844,9.956,7.111l51.2,149.85C361.35,363.761,355.92,371.196,349.196,370.937z"/>
</g>
<path style="fill:#FFC10D;" d="M62.231,96.319l3.103,20.105c0.711,4.59,5.107,7.822,9.762,7.111l71.499-11.119
	c4.655-0.711,7.822-5.107,7.111-9.762l-3.297-21.527c-3.038-19.459,25.083-32.776,54.368-37.301
	c36.008-3.943,59.475,0.776,63.16,19.071l3.297,21.527c0.711,4.59,5.107,7.822,9.762,7.111l71.499-11.119
	c4.655-0.711,7.822-5.107,7.111-9.762l-3.103-20.105c-7.952-26.117-83.006-34.521-154.376-23.661
	C135.669,36.715,63.912,66.323,62.231,96.319z"/>
</svg>